<svg width="28" height="28" viewBox="0 0 28 28" fill="none" xmlns="http://www.w3.org/2000/svg">
<path d="M25.2 2.33334H2.8C1.26 2.33334 0.014 3.64584 0.014 5.25001L0 22.75C0 24.3542 1.26 25.6667 2.8 25.6667H25.2C26.74 25.6667 28 24.3542 28 22.75V5.25001C28 3.64584 26.74 2.33334 25.2 2.33334ZM24.64 8.53126L14.742 14.9771C14.294 15.2688 13.706 15.2688 13.258 14.9771L3.36 8.53126C3.01 8.29793 2.8 7.90418 2.8 7.48126C2.8 6.50418 3.822 5.92084 4.62 6.43126L14 12.5417L23.38 6.43126C24.178 5.92084 25.2 6.50418 25.2 7.48126C25.2 7.90418 24.99 8.29793 24.64 8.53126Z" fill="#33AD6A"/>
</svg>
