<svg width="28" height="28" viewBox="0 0 28 28" fill="none" xmlns="http://www.w3.org/2000/svg">
<path d="M22.1667 9.33333H5.83337C3.89671 9.33333 2.33337 10.8967 2.33337 12.8333V19.8333H7.00004V24.5H21V19.8333H25.6667V12.8333C25.6667 10.8967 24.1034 9.33333 22.1667 9.33333ZM18.6667 22.1667H9.33337V16.3333H18.6667V22.1667ZM22.1667 14C21.525 14 21 13.475 21 12.8333C21 12.1917 21.525 11.6667 22.1667 11.6667C22.8084 11.6667 23.3334 12.1917 23.3334 12.8333C23.3334 13.475 22.8084 14 22.1667 14ZM21 3.5H7.00004V8.16667H21V3.5Z" fill="#FCF6F5"/>
</svg>
